STARTFONT 2.1
FONT -Monotype-Courier-Regular-R-Normal--33-240-100-100-M-138-iso8859-2
SIZE 24 100 100
FONTBOUNDINGBOX 22 35 -1 -8

STARTPROPERTIES 24
FOUNDRY "Monotype"
FAMILY_NAME "Courier"
WEIGHT_NAME "Regular"
SLANT "R"
SETWIDTH_NAME "Normal"
ADD_STYLE_NAME ""
PIXEL_SIZE 33
POINT_SIZE 240
RESOLUTION_X 100
RESOLUTION_Y 100
SPACING "M"
AVERAGE_WIDTH 138
CHARSET_REGISTRY "iso8859"
CHARSET_ENCODING "2"
FACE_NAME "Courier ISO Latin2"
_DEC_DEVICE_FONTNAMES "PS=courier-lat2"
COPYRIGHT "Copyright (c) 1993 Monotype Typography Ltd."
CAP_HEIGHT 19
X_HEIGHT 14
WEIGHT 10
QUAD_WIDTH 20
DEFAULT_CHAR 160
FONT_DESCENT 8
FONT_ASCENT 27
ENDPROPERTIES

CHARS 191

STARTCHAR space
ENCODING 32
SWIDTH 600 0
DWIDTH 20 0
BBX 0 0 0 0
BITMAP
ENDCHAR

STARTCHAR exclam
ENCODING 33
SWIDTH 600 0
DWIDTH 20 0
BBX 4 21 8 0
BITMAP
20
70
70
70
70
70
70
20
20
20
20
20
20
20
00
00
00
00
F0
F0
F0
ENDCHAR

STARTCHAR quotedbl
ENCODING 34
SWIDTH 600 0
DWIDTH 20 0
BBX 12 9 4 12
BITMAP
F9F0
F1E0
70E0
70E0
70E0
70E0
70E0
70C0
2040
ENDCHAR

STARTCHAR numbersign
ENCODING 35
SWIDTH 600 0
DWIDTH 20 0
BBX 14 25 3 -3
BITMAP
0420
0440
0440
0440
0440
0C40
0C40
0C40
0C40
7FFC
08C0
08C0
08C0
08C0
08C0
FFF8
0880
0880
0880
0880
1880
1880
1880
1880
0880
ENDCHAR

STARTCHAR dollar
ENCODING 36
SWIDTH 600 0
DWIDTH 20 0
BBX 12 25 4 -3
BITMAP
0200
0200
0200
1FE0
3060
6020
4020
4000
6000
6000
3E00
07C0
0060
0030
0010
0010
8010
C030
E0E0
BFC0
0600
0200
0200
0200
0200
ENDCHAR

STARTCHAR percent
ENCODING 37
SWIDTH 600 0
DWIDTH 20 0
BBX 14 21 3 0
BITMAP
1E00
3100
6180
4080
4080
4080
6180
3300
1E04
0038
01C0
0E00
F000
01E0
0210
0408
0408
0408
0408
0310
01E0
ENDCHAR

STARTCHAR ampersand
ENCODING 38
SWIDTH 600 0
DWIDTH 20 0
BBX 12 17 4 0
BITMAP
0FC0
1980
3000
2000
2000
3000
1000
1800
3C00
4430
C660
8260
8140
80C0
C180
6340
3E70
ENDCHAR

STARTCHAR quoteright
ENCODING 39
SWIDTH 600 0
DWIDTH 20 0
BBX 7 9 5 11
BITMAP
3E
3C
78
78
70
60
E0
C0
C0
ENDCHAR

STARTCHAR parenleft
ENCODING 40
SWIDTH 600 0
DWIDTH 20 0
BBX 5 25 10 -4
BITMAP
08
18
18
30
30
60
60
60
E0
C0
C0
C0
C0
C0
C0
C0
60
60
60
20
30
30
18
08
08
ENDCHAR

STARTCHAR parenright
ENCODING 41
SWIDTH 600 0
DWIDTH 20 0
BBX 5 25 5 -4
BITMAP
80
C0
C0
60
60
30
30
30
18
18
18
18
18
18
18
18
18
30
30
30
60
60
C0
C0
80
ENDCHAR

STARTCHAR asterisk
ENCODING 42
SWIDTH 600 0
DWIDTH 20 0
BBX 13 12 3 8
BITMAP
0200
0200
0200
0200
E238
3FE0
0700
0500
0D80
18C0
3040
1020
ENDCHAR

STARTCHAR plus
ENCODING 43
SWIDTH 600 0
DWIDTH 20 0
BBX 15 17 2 1
BITMAP
0100
0100
0100
0100
0100
0100
0100
0100
FFFE
0100
0100
0100
0100
0100
0100
0100
0100
ENDCHAR

STARTCHAR comma
ENCODING 44
SWIDTH 600 0
DWIDTH 20 0
BBX 7 10 5 -5
BITMAP
3E
3C
38
78
70
70
E0
E0
C0
80
ENDCHAR

STARTCHAR minus
ENCODING 45
SWIDTH 600 0
DWIDTH 20 0
BBX 16 1 2 9
BITMAP
FFFF
ENDCHAR

STARTCHAR period
ENCODING 46
SWIDTH 600 0
DWIDTH 20 0
BBX 5 4 7 0
BITMAP
70
F8
F8
70
ENDCHAR

STARTCHAR slash
ENCODING 47
SWIDTH 600 0
DWIDTH 20 0
BBX 12 25 4 -3
BITMAP
0010
0030
0020
0060
0060
0040
00C0
0080
0180
0100
0300
0200
0600
0400
0C00
0800
1800
1000
3000
2000
6000
4000
C000
8000
8000
ENDCHAR

STARTCHAR zero
ENCODING 48
SWIDTH 600 0
DWIDTH 20 0
BBX 12 21 4 0
BITMAP
1F80
30C0
6060
4020
C030
C030
8010
8010
8010
8010
8010
8010
8010
8010
8010
C030
4030
6020
6060
39C0
0F80
ENDCHAR

STARTCHAR one
ENCODING 49
SWIDTH 600 0
DWIDTH 20 0
BBX 13 21 3 0
BITMAP
0200
1E00
F200
4200
0200
0200
0200
0200
0200
0200
0200
0200
0200
0200
0200
0200
0200
0200
0200
0200
FFF8
ENDCHAR

STARTCHAR two
ENCODING 50
SWIDTH 600 0
DWIDTH 20 0
BBX 13 21 3 0
BITMAP
0FC0
1860
3030
6018
4008
4008
0008
0018
0010
0030
0060
00C0
0180
0300
0600
0C00
1800
3000
6008
C008
FFF8
ENDCHAR

STARTCHAR three
ENCODING 51
SWIDTH 600 0
DWIDTH 20 0
BBX 13 21 3 0
BITMAP
1F80
70E0
4030
0030
0010
0010
0030
0030
00E0
0780
00E0
0030
0010
0008
0008
0008
0008
0018
C030
70E0
1F80
ENDCHAR

STARTCHAR four
ENCODING 52
SWIDTH 600 0
DWIDTH 20 0
BBX 12 21 4 0
BITMAP
01C0
0340
0240
0640
0440
0C40
0840
1840
1040
3040
2040
6040
C040
8040
FFF0
0040
0040
0040
0040
0040
07F0
ENDCHAR

STARTCHAR five
ENCODING 53
SWIDTH 600 0
DWIDTH 20 0
BBX 13 21 3 0
BITMAP
3FF0
2000
2000
2000
2000
2000
2000
2FC0
3860
2030
0018
0008
0008
0008
0008
0008
0018
C010
6030
38E0
0FC0
ENDCHAR

STARTCHAR six
ENCODING 54
SWIDTH 600 0
DWIDTH 20 0
BBX 12 21 5 0
BITMAP
03F0
0F10
1C00
3000
2000
6000
4000
C000
8000
8F80
98E0
B020
E030
C010
C010
C010
4010
6030
2060
18C0
0F80
ENDCHAR

STARTCHAR seven
ENCODING 55
SWIDTH 600 0
DWIDTH 20 0
BBX 12 21 4 0
BITMAP
FFF0
8010
8010
0030
0020
0020
0060
0060
0040
0040
00C0
0080
0080
0180
0100
0100
0300
0300
0200
0600
0200
ENDCHAR

STARTCHAR eight
ENCODING 56
SWIDTH 600 0
DWIDTH 20 0
BBX 12 21 4 0
BITMAP
1F80
30C0
6060
C030
8010
8010
8010
C030
6060
30C0
1F80
30E0
6030
C030
8010
8010
8010
C030
6060
30C0
1F80
ENDCHAR

STARTCHAR nine
ENCODING 57
SWIDTH 600 0
DWIDTH 20 0
BBX 12 21 5 0
BITMAP
1F00
3180
60C0
C060
C020
8030
8030
8030
C030
C070
60D0
3190
1F10
0010
0030
0020
0060
00C0
0180
8700
FC00
ENDCHAR

STARTCHAR colon
ENCODING 58
SWIDTH 600 0
DWIDTH 20 0
BBX 5 14 7 0
BITMAP
70
F8
F8
70
00
00
00
00
00
00
70
F8
F8
70
ENDCHAR

STARTCHAR semicolon
ENCODING 59
SWIDTH 600 0
DWIDTH 20 0
BBX 7 17 5 -3
BITMAP
1C
3E
3E
1C
00
00
00
00
00
3C
78
78
70
E0
E0
C0
80
ENDCHAR

STARTCHAR less
ENCODING 60
SWIDTH 600 0
DWIDTH 20 0
BBX 15 17 2 1
BITMAP
0002
000E
0038
0070
01C0
0700
1C00
7000
E000
7000
1C00
0700
0180
00E0
0038
000E
0002
ENDCHAR

STARTCHAR equal
ENCODING 61
SWIDTH 600 0
DWIDTH 20 0
BBX 16 6 2 6
BITMAP
FFFF
0000
0000
0000
0000
FFFF
ENDCHAR

STARTCHAR greater
ENCODING 62
SWIDTH 600 0
DWIDTH 20 0
BBX 16 17 2 1
BITMAP
C000
7000
1800
0E00
0380
00E0
0030
001C
0007
000E
0038
00E0
0380
0600
1C00
F000
4000
ENDCHAR

STARTCHAR question
ENCODING 63
SWIDTH 600 0
DWIDTH 20 0
BBX 12 19 4 0
BITMAP
3F80
E0E0
8060
8030
0010
0010
0030
0030
00C0
0780
0600
0400
0400
0000
0000
0000
1F00
1F00
1F00
ENDCHAR

STARTCHAR at
ENCODING 64
SWIDTH 600 0
DWIDTH 20 0
BBX 12 23 4 -2
BITMAP
1F80
38C0
6060
4060
4020
C020
8020
81E0
8720
8420
8C20
8820
8820
8C20
8620
83F0
8000
C000
C000
4000
6020
30E0
1F80
ENDCHAR

STARTCHAR A
ENCODING 65
SWIDTH 600 0
DWIDTH 20 0
BBX 20 19 0 0
BITMAP
1FE000
00D000
009000
019000
019800
010800
030800
020C00
020400
060600
040600
0C0200
0FFF00
080100
180100
180180
100080
3000C0
FE07F0
ENDCHAR

STARTCHAR B
ENCODING 66
SWIDTH 600 0
DWIDTH 20 0
BBX 16 19 1 0
BITMAP
FFF0
101C
1004
1002
1002
1002
1006
1004
101C
1FF8
100E
1003
1001
1001
1001
1001
1003
1006
FFFC
ENDCHAR

STARTCHAR C
ENCODING 67
SWIDTH 600 0
DWIDTH 20 0
BBX 16 19 2 0
BITMAP
07E2
1C3A
300E
6006
4002
C002
8000
8000
8000
8000
8000
8000
C000
C000
6000
2003
3806
0E1C
07F0
ENDCHAR

STARTCHAR D
ENCODING 68
SWIDTH 600 0
DWIDTH 20 0
BBX 15 19 3 0
BITMAP
FFE0
2030
2018
200C
2004
2006
2002
2002
2002
2002
2002
2002
2002
2006
2004
200C
2018
2070
FFE0
ENDCHAR

STARTCHAR E
ENCODING 69
SWIDTH 600 0
DWIDTH 20 0
BBX 16 19 1 0
BITMAP
FFFE
1002
1002
1002
1002
1002
1040
1040
1040
1FC0
1040
1040
1000
1001
1001
1001
1001
1001
FFFF
ENDCHAR

STARTCHAR F
ENCODING 70
SWIDTH 600 0
DWIDTH 20 0
BBX 16 19 2 0
BITMAP
FFFF
1001
1001
1001
1001
1001
1040
1040
1040
1FC0
1040
1040
1000
1000
1000
1000
1000
1000
FFC0
ENDCHAR

STARTCHAR G
ENCODING 71
SWIDTH 600 0
DWIDTH 20 0
BBX 17 19 2 0
BITMAP
07F200
1C1E00
300600
600200
400200
C00000
C00000
800000
800000
800000
800000
80FF80
800200
C00200
400200
600200
300200
1C0E00
07F800
ENDCHAR

STARTCHAR H
ENCODING 72
SWIDTH 600 0
DWIDTH 20 0
BBX 17 19 1 0
BITMAP
7E3F00
100400
100400
100400
100400
100400
100400
100400
100400
1FFC00
100400
100400
100400
100400
100400
100400
100400
100400
FE3F80
ENDCHAR

STARTCHAR I
ENCODING 73
SWIDTH 600 0
DWIDTH 20 0
BBX 13 19 3 0
BITMAP
FFF8
0200
0200
0200
0200
0200
0200
0200
0200
0200
0200
0200
0200
0200
0200
0200
0200
0200
FFF8
ENDCHAR

STARTCHAR J
ENCODING 74
SWIDTH 600 0
DWIDTH 20 0
BBX 16 19 3 0
BITMAP
07FF
0010
0010
0010
0010
0010
0010
0010
0010
0010
8010
8010
8010
8010
8010
8030
C060
70C0
1F80
ENDCHAR

STARTCHAR K
ENCODING 75
SWIDTH 600 0
DWIDTH 20 0
BBX 18 19 1 0
BITMAP
FF1F80
100600
100C00
101800
103000
106000
10C000
118000
178000
1CC000
182000
101000
101800
100800
100C00
100400
100600
100200
FF03C0
ENDCHAR

STARTCHAR L
ENCODING 76
SWIDTH 600 0
DWIDTH 20 0
BBX 15 19 3 0
BITMAP
FF80
0800
0800
0800
0800
0800
0800
0800
0800
0800
0800
0802
0802
0802
0802
0802
0802
0802
FFFE
ENDCHAR

STARTCHAR M
ENCODING 77
SWIDTH 600 0
DWIDTH 20 0
BBX 19 19 0 0
BITMAP
F803E0
280280
2C0280
2C0680
240480
260C80
220880
231880
211080
219080
20B080
20A080
20E080
200080
200080
200080
200080
200080
FE0FE0
ENDCHAR

STARTCHAR N
ENCODING 78
SWIDTH 600 0
DWIDTH 20 0
BBX 18 19 1 0
BITMAP
F81FC0
1C0100
140100
160100
120100
130100
118100
108100
10C100
104100
106100
103100
103100
101900
100900
100D00
100500
100700
7F0300
ENDCHAR

STARTCHAR O
ENCODING 79
SWIDTH 600 0
DWIDTH 20 0
BBX 16 19 2 0
BITMAP
07E0
1C38
300C
2006
6002
C003
C003
8001
8001
8001
8001
8001
C003
4003
6006
2004
300C
1C38
07E0
ENDCHAR

STARTCHAR P
ENCODING 80
SWIDTH 600 0
DWIDTH 20 0
BBX 15 19 3 0
BITMAP
FFF0
1018
100C
1006
1002
1002
1002
1006
100C
1038
1FF0
1000
1000
1000
1000
1000
1000
1000
FFC0
ENDCHAR

STARTCHAR Q
ENCODING 81
SWIDTH 600 0
DWIDTH 20 0
BBX 16 22 2 -3
BITMAP
07E0
1C38
300C
2006
6002
C003
C003
8001
8001
8001
8001
8001
C003
4002
6006
2004
300C
1C38
03E0
0600
0FF3
1C1E
ENDCHAR

STARTCHAR R
ENCODING 82
SWIDTH 600 0
DWIDTH 20 0
BBX 18 19 1 0
BITMAP
FFF000
101C00
100400
100600
100200
100200
100600
100C00
103800
1FE000
106000
103000
101800
100C00
100600
100200
100300
100100
FF01C0
ENDCHAR

STARTCHAR S
ENCODING 83
SWIDTH 600 0
DWIDTH 20 0
BBX 14 19 3 0
BITMAP
0FE8
3838
2018
4008
4008
4000
6000
3000
1F80
03F0
0018
000C
0004
8004
8004
C00C
E018
B870
8FE0
ENDCHAR

STARTCHAR T
ENCODING 84
SWIDTH 600 0
DWIDTH 20 0
BBX 15 19 2 0
BITMAP
FFFE
8102
8102
8102
8102
8102
8102
0100
0100
0100
0100
0100
0100
0100
0100
0100
0100
0100
3FF8
ENDCHAR

STARTCHAR U
ENCODING 85
SWIDTH 600 0
DWIDTH 20 0
BBX 17 19 1 0
BITMAP
FE3F80
200200
200200
200200
200200
200200
200200
200200
200200
200200
200200
200200
200200
200200
300600
100400
180C00
0E3800
03F000
ENDCHAR

STARTCHAR V
ENCODING 86
SWIDTH 600 0
DWIDTH 20 0
BBX 20 19 0 0
BITMAP
FE07F0
3000C0
100080
180180
180100
080100
0C0300
040200
040600
060400
020400
030C00
010800
011800
019800
009000
00F000
006000
006000
ENDCHAR

STARTCHAR W
ENCODING 87
SWIDTH 600 0
DWIDTH 20 0
BBX 18 19 1 0
BITMAP
FC1FC0
400180
600180
600180
60C100
61C100
21A100
212100
212100
232300
223300
321300
361300
361A00
140A00
140A00
1C0A00
1C0E00
180600
ENDCHAR

STARTCHAR X
ENCODING 88
SWIDTH 600 0
DWIDTH 20 0
BBX 17 19 1 0
BITMAP
FC1F80
300600
100400
180C00
0C1800
063000
022000
036000
008000
01C000
014000
036000
063000
041800
080800
180C00
300600
200300
FC1F80
ENDCHAR

STARTCHAR Y
ENCODING 89
SWIDTH 600 0
DWIDTH 20 0
BBX 17 19 1 0
BITMAP
FC1F80
300600
100400
180C00
0C1800
041000
063000
036000
014000
01C000
008000
008000
008000
008000
008000
008000
008000
008000
1FFC00
ENDCHAR

STARTCHAR Z
ENCODING 90
SWIDTH 600 0
DWIDTH 20 0
BBX 13 19 3 0
BITMAP
7FF0
4010
4030
4020
4060
40C0
0080
0180
0300
0600
0400
0C00
1808
1008
3008
6008
4008
C008
FFF8
ENDCHAR

STARTCHAR bracketleft
ENCODING 91
SWIDTH 600 0
DWIDTH 20 0
BBX 5 24 9 -3
BITMAP
F8
80
80
80
80
80
80
80
80
80
80
80
80
80
80
80
80
80
80
80
80
80
80
F8
ENDCHAR

STARTCHAR backslash
ENCODING 92
SWIDTH 600 0
DWIDTH 20 0
BBX 12 25 4 -3
BITMAP
8000
8000
C000
4000
6000
2000
3000
1000
1800
0800
0C00
0400
0600
0200
0300
0100
0180
0080
00C0
00C0
0040
0060
0020
0030
0010
ENDCHAR

STARTCHAR bracketright
ENCODING 93
SWIDTH 600 0
DWIDTH 20 0
BBX 5 24 5 -3
BITMAP
F8
08
08
08
08
08
08
08
08
08
08
08
08
08
08
08
08
08
08
08
08
08
08
F8
ENDCHAR

STARTCHAR asciicircum
ENCODING 94
SWIDTH 600 0
DWIDTH 20 0
BBX 12 9 4 12
BITMAP
0200
0600
0F00
1900
1180
30C0
6060
C030
8010
ENDCHAR

STARTCHAR underscore
ENCODING 95
SWIDTH 600 0
DWIDTH 20 0
BBX 20 2 0 -4
BITMAP
FFFFF0
FFFFF0
ENDCHAR

STARTCHAR quoteleft
ENCODING 96
SWIDTH 600 0
DWIDTH 20 0
BBX 7 9 8 11
BITMAP
F8
78
38
3C
1C
1C
0E
0E
06
ENDCHAR

STARTCHAR a
ENCODING 97
SWIDTH 600 0
DWIDTH 20 0
BBX 15 14 3 0
BITMAP
1FC0
7860
0030
0010
0010
0010
1FF0
7010
C010
8010
8010
C070
61D0
3F1E
ENDCHAR

STARTCHAR b
ENCODING 98
SWIDTH 600 0
DWIDTH 20 0
BBX 17 21 1 0
BITMAP
F00000
100000
100000
100000
100000
100000
100000
11F800
170E00
1C0300
180100
180180
100080
100080
100080
100080
180180
180100
140300
130E00
F1F800
ENDCHAR

STARTCHAR c
ENCODING 99
SWIDTH 600 0
DWIDTH 20 0
BBX 15 14 3 0
BITMAP
0FE4
383C
600C
4004
C004
8000
8000
8000
8000
C000
4002
600E
3838
0FE0
ENDCHAR

STARTCHAR d
ENCODING 100
SWIDTH 600 0
DWIDTH 20 0
BBX 17 21 2 0
BITMAP
003C00
000400
000400
000400
000400
000400
000400
0FC400
387400
601400
400C00
C00C00
800400
800400
800400
800400
C00C00
400C00
601400
386400
0FC780
ENDCHAR

STARTCHAR e
ENCODING 101
SWIDTH 600 0
DWIDTH 20 0
BBX 15 14 2 0
BITMAP
0FE0
3838
600C
4004
C006
8002
FFFE
8000
C000
C000
6000
3006
1C3C
07F0
ENDCHAR

STARTCHAR f
ENCODING 102
SWIDTH 600 0
DWIDTH 20 0
BBX 14 21 4 0
BITMAP
03FC
060C
0C00
0800
0800
0800
0800
FFF0
0800
0800
0800
0800
0800
0800
0800
0800
0800
0800
0800
0800
FFF0
ENDCHAR

STARTCHAR g
ENCODING 103
SWIDTH 600 0
DWIDTH 20 0
BBX 16 20 2 -6
BITMAP
1F8F
38E8
6038
4018
C008
8008
8008
8008
C018
4018
6038
38E8
0F88
0008
0008
0008
0018
0010
0070
1FC0
ENDCHAR

STARTCHAR h
ENCODING 104
SWIDTH 600 0
DWIDTH 20 0
BBX 17 21 1 0
BITMAP
F00000
100000
100000
100000
100000
100000
100000
13F000
161800
1C0C00
180400
100400
100400
100400
100400
100400
100400
100400
100400
100400
7E1F80
ENDCHAR

STARTCHAR i
ENCODING 105
SWIDTH 600 0
DWIDTH 20 0
BBX 13 21 3 0
BITMAP
0600
0600
0600
0000
0000
0000
0000
7E00
0200
0200
0200
0200
0200
0200
0200
0200
0200
0200
0200
0200
FFF8
ENDCHAR

STARTCHAR j
ENCODING 106
SWIDTH 600 0
DWIDTH 20 0
BBX 10 27 3 -6
BITMAP
0180
0180
0180
0000
0000
0000
0000
FFC0
0040
0040
0040
0040
0040
0040
0040
0040
0040
0040
0040
0040
0040
0040
0040
0040
00C0
0180
FF00
ENDCHAR

STARTCHAR k
ENCODING 107
SWIDTH 600 0
DWIDTH 20 0
BBX 16 21 3 0
BITMAP
F000
1000
1000
1000
1000
1000
1000
107E
1030
1060
10C0
1300
1600
1F00
1980
1080
1040
1020
1010
1008
F03F
ENDCHAR

STARTCHAR l
ENCODING 108
SWIDTH 600 0
DWIDTH 20 0
BBX 13 21 3 0
BITMAP
7E00
0200
0200
0200
0200
0200
0200
0200
0200
0200
0200
0200
0200
0200
0200
0200
0200
0200
0200
0200
FFF8
ENDCHAR

STARTCHAR m
ENCODING 109
SWIDTH 600 0
DWIDTH 20 0
BBX 19 14 0 0
BITMAP
E78F00
2CD980
306080
206080
204080
204080
204080
204080
204080
204080
204080
204080
204080
FC70E0
ENDCHAR

STARTCHAR n
ENCODING 110
SWIDTH 600 0
DWIDTH 20 0
BBX 16 14 2 0
BITMAP
E7E0
2C30
3818
3008
2008
2008
2008
2008
2008
2008
2008
2008
2008
FC3F
ENDCHAR

STARTCHAR o
ENCODING 111
SWIDTH 600 0
DWIDTH 20 0
BBX 15 14 2 0
BITMAP
0FE0
1838
300C
4004
C006
8002
8002
8002
8002
C006
6004
3018
1870
0FE0
ENDCHAR

STARTCHAR p
ENCODING 112
SWIDTH 600 0
DWIDTH 20 0
BBX 17 20 1 -6
BITMAP
F1F800
170E00
1C0300
180180
180180
100080
100080
100080
180180
180100
140300
170E00
11F800
100000
100000
100000
100000
100000
100000
FF0000
ENDCHAR

STARTCHAR q
ENCODING 113
SWIDTH 600 0
DWIDTH 20 0
BBX 17 20 2 -6
BITMAP
0FC780
387400
601C00
400C00
C00C00
800400
800400
800400
C00C00
400C00
601C00
387400
0FC400
000400
000400
000400
000400
000400
000400
007F80
ENDCHAR

STARTCHAR r
ENCODING 114
SWIDTH 600 0
DWIDTH 20 0
BBX 15 14 3 0
BITMAP
F87C
08C6
0B82
0E00
0C00
0800
0800
0800
0800
0800
0800
0800
0800
FFF0
ENDCHAR

STARTCHAR s
ENCODING 115
SWIDTH 600 0
DWIDTH 20 0
BBX 13 14 3 0
BITMAP
1FD0
3070
6010
4010
6000
3800
0FE0
0030
0018
8008
8008
C018
F070
9FC0
ENDCHAR

STARTCHAR t
ENCODING 116
SWIDTH 600 0
DWIDTH 20 0
BBX 16 19 3 0
BITMAP
0800
0800
0800
0800
0800
FFF8
0800
0800
0800
0800
0800
0800
0800
0800
0800
0800
0C03
061E
03F8
ENDCHAR

STARTCHAR u
ENCODING 117
SWIDTH 600 0
DWIDTH 20 0
BBX 16 14 2 0
BITMAP
F03C
1004
1004
1004
1004
1004
1004
1004
1004
1004
100C
181C
0C74
07C7
ENDCHAR

STARTCHAR v
ENCODING 118
SWIDTH 600 0
DWIDTH 20 0
BBX 18 14 1 0
BITMAP
FE1FC0
300200
100200
180600
080400
0C0C00
040800
041800
061000
021000
033000
012000
01E000
00C000
ENDCHAR

STARTCHAR w
ENCODING 119
SWIDTH 600 0
DWIDTH 20 0
BBX 18 14 1 0
BITMAP
FC0FC0
200100
200100
30C300
30C200
11E200
11A200
192200
193600
0B3400
0A1400
0A1C00
0E1C00
0C0C00
ENDCHAR

STARTCHAR x
ENCODING 120
SWIDTH 600 0
DWIDTH 20 0
BBX 16 14 2 0
BITMAP
FC3F
300C
1818
0C30
0660
03C0
0180
03C0
0660
0C30
1818
300C
6006
FC3F
ENDCHAR

STARTCHAR y
ENCODING 121
SWIDTH 600 0
DWIDTH 20 0
BBX 17 20 2 -6
BITMAP
FC1F80
200200
300600
100400
180C00
080800
0C1800
041000
063000
022000
036000
014000
01C000
008000
008000
010000
010000
030000
020000
FFC000
ENDCHAR

STARTCHAR z
ENCODING 122
SWIDTH 600 0
DWIDTH 20 0
BBX 12 14 4 0
BITMAP
FFF0
8020
8060
80C0
0180
0300
0600
0C00
1800
3000
2010
6010
C010
FFF0
ENDCHAR

STARTCHAR braceleft
ENCODING 123
SWIDTH 600 0
DWIDTH 20 0
BBX 7 25 6 -4
BITMAP
06
1E
18
10
10
10
10
10
10
10
10
30
E0
30
10
10
10
10
10
10
10
10
18
0E
06
ENDCHAR

STARTCHAR bar
ENCODING 124
SWIDTH 600 0
DWIDTH 20 0
BBX 1 25 9 -4
BITMAP
80
80
80
80
80
80
80
80
80
80
80
80
80
80
80
80
80
80
80
80
80
80
80
80
80
ENDCHAR

STARTCHAR braceright
ENCODING 125
SWIDTH 600 0
DWIDTH 20 0
BBX 7 25 6 -4
BITMAP
C0
F0
30
10
10
10
10
10
10
10
10
18
0E
18
10
10
10
10
10
10
10
10
30
E0
C0
ENDCHAR

STARTCHAR asciitilde
ENCODING 126
SWIDTH 600 0
DWIDTH 20 0
BBX 14 5 3 7
BITMAP
3C00
660C
C308
8198
00F0
ENDCHAR

STARTCHAR space
ENCODING 160
SWIDTH 600 0
DWIDTH 21 0
BBX 0 0 0 0
BITMAP
ENDCHAR

STARTCHAR Aogonek
ENCODING 161
SWIDTH 600 0
DWIDTH 20 0
BBX 20 24 1 -5
BITMAP
1FE000
00A000
01B000
013000
031000
031800
021800
060800
060C00
040400
0C0400
080600
0FFE00
180300
100300
100100
300180
200080
FE0FE0
000080
000100
000100
000190
0000F0
ENDCHAR

STARTCHAR breve
ENCODING 162
SWIDTH 600 0
DWIDTH 20 0
BBX 10 4 5 17
BITMAP
C0C0
C0C0
6380
3F00
ENDCHAR

STARTCHAR Lslash
ENCODING 163
SWIDTH 600 0
DWIDTH 20 0
BBX 16 19 2 0
BITMAP
7FC0
0400
0400
0400
0400
0400
0460
05C0
0700
0E00
3C00
7401
C401
0401
0401
0401
0401
0401
7FFF
ENDCHAR

STARTCHAR currency
ENCODING 164
SWIDTH 600 0
DWIDTH 20 0
BBX 13 13 3 3
BITMAP
8008
6FB8
38F0
2020
6030
4010
4010
4010
6030
2020
78F0
4F90
8008
ENDCHAR

STARTCHAR Lcaron
ENCODING 165
SWIDTH 600 0
DWIDTH 20 0
BBX 15 19 2 0
BITMAP
FF9E
081E
080E
0804
080C
0818
0800
0800
0800
0800
0800
0802
0802
0802
0802
0802
0802
0802
FFFE
ENDCHAR

STARTCHAR Sacute
ENCODING 166
SWIDTH 600 0
DWIDTH 20 0
BBX 14 26 3 0
BITMAP
00C0
0180
0300
0600
0C00
0000
0000
0FE8
3838
2018
4008
4008
4000
6000
3000
1F80
07F0
0038
000C
000C
8004
8004
C00C
E018
B870
8FE0
ENDCHAR

STARTCHAR section
ENCODING 167
SWIDTH 600 0
DWIDTH 20 0
BBX 15 22 2 -1
BITMAP
07FC
0804
1004
1004
1000
0800
7C00
8300
8180
C060
6018
3004
0C02
0302
0082
006C
0030
0010
4010
4010
4020
7FC0
ENDCHAR

STARTCHAR dieresis
ENCODING 168
SWIDTH 600 0
DWIDTH 20 0
BBX 10 3 5 17
BITMAP
4080
E1C0
4080
ENDCHAR

STARTCHAR Scaron
ENCODING 169
SWIDTH 600 0
DWIDTH 20 0
BBX 14 25 3 0
BITMAP
3070
18C0
0E80
0300
0000
0000
0FE8
3838
2018
4008
4008
4000
6000
3000
1F80
07F0
0038
000C
000C
8004
8004
C00C
E018
B870
8FE0
ENDCHAR

STARTCHAR Scommaaccent
ENCODING 170
SWIDTH 600 0
DWIDTH 20 0
BBX 14 27 3 -8
BITMAP
0FC8
3838
2018
4008
4008
4000
6000
3000
1F80
07F0
0038
000C
0004
8004
8004
C00C
E018
B870
8FE0
0000
0000
0700
0780
0380
0100
0300
0600
ENDCHAR

STARTCHAR Tcaron
ENCODING 171
SWIDTH 600 0
DWIDTH 20 0
BBX 15 26 2 0
BITMAP
1000
1830
0C60
07C0
0100
0000
0000
FFFE
8102
8102
8102
8102
8102
8102
0100
0100
0100
0100
0100
0100
0100
0100
0100
0100
0100
3FF8
ENDCHAR

STARTCHAR Zacute
ENCODING 172
SWIDTH 600 0
DWIDTH 20 0
BBX 13 26 3 0
BITMAP
0080
0180
0300
0E00
0800
0000
0000
7FF0
4010
4030
4020
4060
40C0
0080
0180
0300
0600
0400
0C00
1808
1008
3008
6008
4008
C008
FFF8
ENDCHAR

STARTCHAR hyphen
ENCODING 173
SWIDTH 600 0
DWIDTH 20 0
BBX 14 2 3 8
BITMAP
FFFC
FFFC
ENDCHAR

STARTCHAR Zcaron
ENCODING 174
SWIDTH 600 0
DWIDTH 20 0
BBX 13 26 3 0
BITMAP
1000
3060
1CC0
0780
0300
0000
0000
7FF0
4010
4030
4020
4060
40C0
0080
0180
0300
0600
0400
0C00
1808
1008
3008
6008
4008
C008
FFF8
ENDCHAR

STARTCHAR Zdotaccent
ENCODING 175
SWIDTH 600 0
DWIDTH 20 0
BBX 13 25 3 0
BITMAP
0700
0700
0700
0000
0000
0000
7FF0
4010
4030
4020
4060
40C0
0180
0180
0300
0600
0400
0C00
1808
1008
3008
6008
4008
C008
FFF8
ENDCHAR

STARTCHAR degree
ENCODING 176
SWIDTH 600 0
DWIDTH 20 0
BBX 9 9 5 15
BITMAP
1C00
7F00
6300
C180
C180
C180
6300
7F00
1C00
ENDCHAR

STARTCHAR aogonek
ENCODING 177
SWIDTH 600 0
DWIDTH 20 0
BBX 16 18 2 -4
BITMAP
1FE0
3830
0018
0008
0008
0008
3FF8
6008
C008
8008
8018
C038
61E8
3F8F
0018
0010
0011
000F
ENDCHAR

STARTCHAR ogonek
ENCODING 178
SWIDTH 600 0
DWIDTH 20 0
BBX 5 5 8 -5
BITMAP
60
80
80
88
70
ENDCHAR

STARTCHAR lslash
ENCODING 179
SWIDTH 600 0
DWIDTH 20 0
BBX 13 21 3 0
BITMAP
7E00
0200
0200
0200
0200
0200
0200
0220
02E0
03C0
0700
1E00
3A00
2200
0200
0200
0200
0200
0200
0200
FFF8
ENDCHAR

STARTCHAR acute
ENCODING 180
SWIDTH 600 0
DWIDTH 20 0
BBX 6 5 7 16
BITMAP
0C
38
60
C0
40
ENDCHAR

STARTCHAR lcaron
ENCODING 181
SWIDTH 600 0
DWIDTH 20 0
BBX 13 21 4 0
BITMAP
7E70
0270
0210
0230
0260
0240
0200
0200
0200
0200
0200
0200
0200
0200
0200
0200
0200
0200
0200
0200
FFF8
ENDCHAR

STARTCHAR sacute
ENCODING 182
SWIDTH 600 0
DWIDTH 20 0
BBX 13 22 3 0
BITMAP
0080
0180
0300
0600
0C00
0000
0000
0000
1FD0
3070
6010
4010
6000
7800
1FE0
00F0
0018
8008
8008
C018
F070
9FC0
ENDCHAR

STARTCHAR caron
ENCODING 183
SWIDTH 600 0
DWIDTH 20 0
BBX 10 5 5 16
BITMAP
C0C0
6180
3300
1E00
0400
ENDCHAR

STARTCHAR commaaccent
ENCODING 184
SWIDTH 600 0
DWIDTH 20 0
BBX 4 6 8 -8
BITMAP
60
F0
70
20
60
C0
ENDCHAR

STARTCHAR scaron
ENCODING 185
SWIDTH 600 0
DWIDTH 20 0
BBX 13 21 3 0
BITMAP
2020
38E0
0D80
0700
0200
0000
0000
1FD0
3070
6010
4010
6000
7800
1FE0
00F0
0018
8008
8008
C018
F070
9FC0
ENDCHAR

STARTCHAR scommaaccent
ENCODING 186
SWIDTH 600 0
DWIDTH 20 0
BBX 13 22 3 -8
BITMAP
1FD0
3070
6010
4010
6000
3800
1FE0
00F0
0018
8008
8008
C018
F070
9FE0
0000
0000
0700
0780
0780
0100
0300
0600
ENDCHAR

STARTCHAR tcaron
ENCODING 187
SWIDTH 600 0
DWIDTH 20 0
BBX 16 21 3 0
BITMAP
0070
0870
0810
0820
0860
0800
0800
FFFC
0800
0800
0800
0800
0800
0800
0800
0800
0800
0800
0C01
060E
03F8
ENDCHAR

STARTCHAR zacute
ENCODING 188
SWIDTH 600 0
DWIDTH 20 0
BBX 12 22 4 0
BITMAP
0080
0300
0600
0C00
1800
0000
0000
0000
FFF0
8020
8060
80C0
0180
0300
0600
0C00
1800
3000
2010
6010
C010
FFF0
ENDCHAR

STARTCHAR hungarumlaut
ENCODING 189
SWIDTH 600 0
DWIDTH 20 0
BBX 10 5 5 16
BITMAP
18C0
3180
6300
C600
4200
ENDCHAR

STARTCHAR zcaron
ENCODING 190
SWIDTH 600 0
DWIDTH 20 0
BBX 12 21 4 0
BITMAP
6060
30C0
1B80
0E00
0200
0000
0000
FFF0
8020
8060
80C0
0180
0300
0600
0C00
1800
3000
2010
6010
C010
FFF0
ENDCHAR

STARTCHAR zdotaccent
ENCODING 191
SWIDTH 600 0
DWIDTH 20 0
BBX 12 20 4 0
BITMAP
0E00
0E00
0E00
0000
0000
0000
FFF0
8060
8060
80C0
0180
0300
0600
0C00
1800
3000
2010
6010
C010
FFF0
ENDCHAR

STARTCHAR Racute
ENCODING 192
SWIDTH 600 0
DWIDTH 20 0
BBX 18 26 1 0
BITMAP
003000
006000
00C000
038000
010000
000000
000000
FFF000
101C00
100400
100600
100200
100200
100600
100C00
103800
1FE000
106000
103000
100800
100C00
100600
100200
100300
100100
FF01C0
ENDCHAR

STARTCHAR Aacute
ENCODING 193
SWIDTH 600 0
DWIDTH 20 0
BBX 20 26 0 0
BITMAP
001800
003000
006000
00C000
018000
000000
000000
1FE000
00D000
009000
019000
019800
010800
030800
020C00
020400
060600
040600
0C0200
0FFF00
080100
180100
180180
100080
3000C0
FE07F0
ENDCHAR

STARTCHAR Acircumflex
ENCODING 194
SWIDTH 600 0
DWIDTH 20 0
BBX 20 26 0 0
BITMAP
002000
00F000
019800
030C00
060600
000000
000000
1FE000
00D000
009000
019000
019800
010800
030800
020C00
020400
060600
040600
0C0200
0FFF00
080100
180100
180180
100080
3000C0
FE07F0
ENDCHAR

STARTCHAR Abreve
ENCODING 195
SWIDTH 600 0
DWIDTH 20 0
BBX 20 25 0 0
BITMAP
060600
060600
031C00
01F800
000000
000000
1FE000
00D000
009000
019000
019800
010800
030800
020C00
020400
060600
040600
0C0200
0FFF00
080100
180100
180180
100080
3000C0
FE07F0
ENDCHAR

STARTCHAR Adieresis
ENCODING 196
SWIDTH 600 0
DWIDTH 20 0
BBX 20 24 0 0
BITMAP
020400
070E00
020400
000000
000000
1FE000
00D000
009000
019800
019800
010800
030C00
030C00
020400
060600
040200
040200
0FFF00
080100
180180
180180
100080
3000C0
FE07F0
ENDCHAR

STARTCHAR Lacute
ENCODING 197
SWIDTH 600 0
DWIDTH 20 0
BBX 15 26 3 0
BITMAP
0040
00C0
0300
0600
0400
0000
0000
FF80
0800
0800
0800
0800
0800
0800
0800
0800
0800
0800
0802
0802
0802
0802
0802
0802
0802
FFFE
ENDCHAR

STARTCHAR Cacute
ENCODING 198
SWIDTH 600 0
DWIDTH 20 0
BBX 16 26 2 0
BITMAP
0020
00C0
0180
0300
0600
0000
0000
07E2
1C3A
300E
6006
4002
C002
8000
8000
8000
8000
8000
8000
C000
C000
4000
2003
3006
0E3C
07F0
ENDCHAR

STARTCHAR Ccedilla
ENCODING 199
SWIDTH 600 0
DWIDTH 20 0
BBX 16 24 2 -5
BITMAP
0FE2
1C3A
300E
6006
4002
C002
8000
8000
8000
8000
8000
8000
8000
C000
4000
6003
3006
0C3C
07F0
0100
0180
0040
0440
0380
ENDCHAR

STARTCHAR Ccaron
ENCODING 200
SWIDTH 600 0
DWIDTH 20 0
BBX 16 25 2 0
BITMAP
1818
0C30
06E0
0380
0080
0000
07E2
1C3A
300E
6006
4002
C002
8000
8000
8000
8000
8000
8000
C000
C000
4000
2003
3006
0E3C
07F0
ENDCHAR

STARTCHAR Eacute
ENCODING 201
SWIDTH 600 0
DWIDTH 20 0
BBX 16 26 1 0
BITMAP
0060
00C0
0180
0300
0600
0000
0000
FFFE
1002
1002
1002
1002
1002
1040
1040
1040
1FC0
1040
1040
1000
1001
1001
1001
1001
1001
FFFF
ENDCHAR

STARTCHAR Eogonek
ENCODING 202
SWIDTH 600 0
DWIDTH 20 0
BBX 17 24 1 -5
BITMAP
FFFE00
100200
100200
100200
100200
100200
104000
104000
104000
1FC000
104000
104000
100000
100100
100100
100100
100100
100100
FFFF00
000C00
000800
000800
000C80
000780
ENDCHAR

STARTCHAR Edieresis
ENCODING 203
SWIDTH 600 0
DWIDTH 20 0
BBX 16 24 1 0
BITMAP
0810
1C38
0810
0000
0000
FFFE
1002
1002
1002
1002
1002
1040
1040
1040
1FC0
1040
1040
1000
1001
1001
1001
1001
1001
FFFF
ENDCHAR

STARTCHAR Ecaron
ENCODING 204
SWIDTH 600 0
DWIDTH 20 0
BBX 16 26 1 0
BITMAP
0808
1838
0660
03C0
0180
0000
0000
FFFE
1002
1002
1002
1002
1002
1040
1040
1040
1FC0
1040
1040
1000
1001
1001
1001
1001
1001
FFFF
ENDCHAR

STARTCHAR Iacute
ENCODING 205
SWIDTH 600 0
DWIDTH 20 0
BBX 13 26 3 0
BITMAP
0080
0380
0700
0C00
0800
0000
0000
FFF8
0200
0200
0200
0200
0200
0200
0200
0200
0200
0200
0200
0200
0200
0200
0200
0200
0200
FFF8
ENDCHAR

STARTCHAR Icircumflex
ENCODING 206
SWIDTH 600 0
DWIDTH 20 0
BBX 13 26 3 0
BITMAP
0200
0700
1D80
3860
2020
0000
0000
FFF8
0200
0200
0200
0200
0200
0200
0200
0200
0200
0200
0200
0200
0200
0200
0200
0200
0200
FFF8
ENDCHAR

STARTCHAR Dcaron
ENCODING 207
SWIDTH 600 0
DWIDTH 20 0
BBX 15 26 3 0
BITMAP
1000
1830
0C60
07C0
0100
0000
0000
FFE0
2030
2018
200C
2004
2006
2002
2002
2002
2002
2002
2002
2002
2006
2004
200C
2018
2070
FFE0
ENDCHAR

STARTCHAR Dcroat
ENCODING 208
SWIDTH 600 0
DWIDTH 20 0
BBX 17 19 0 0
BITMAP
3FF800
081C00
080600
080300
080100
080180
080080
080080
080080
FFE080
080080
080080
080080
080180
080100
080300
080600
081C00
3FF800
ENDCHAR

STARTCHAR Nacute
ENCODING 209
SWIDTH 600 0
DWIDTH 20 0
BBX 18 26 1 0
BITMAP
003000
006000
00C000
018000
030000
000000
000000
F81FC0
1C0100
140100
160100
120100
130100
118100
108100
10C100
104100
106100
103100
103100
101900
100900
100D00
100500
100700
7F0300
ENDCHAR

STARTCHAR Ncaron
ENCODING 210
SWIDTH 600 0
DWIDTH 20 0
BBX 18 26 1 0
BITMAP
080400
060C00
033800
01E000
00C000
000000
000000
F81FC0
1C0100
140100
160100
120100
130100
118100
108100
10C100
104100
106100
103100
103100
101900
100900
100D00
100500
100700
7F0300
ENDCHAR

STARTCHAR Oacute
ENCODING 211
SWIDTH 600 0
DWIDTH 20 0
BBX 16 26 2 0
BITMAP
0020
0060
0180
0300
0600
0000
0000
07E0
1C38
300C
2006
6006
4003
C003
8001
8001
8001
8001
8001
C003
4003
6006
2006
300C
1C38
07E0
ENDCHAR

STARTCHAR Ocircumflex
ENCODING 212
SWIDTH 600 0
DWIDTH 20 0
BBX 16 25 2 0
BITMAP
0180
0340
0E70
1818
0000
0000
07E0
1C38
300C
2006
6006
4003
C003
8001
8001
8001
8001
8001
C003
4003
6006
2006
300C
1C38
07E0
ENDCHAR

STARTCHAR Ohungarumlaut
ENCODING 213
SWIDTH 600 0
DWIDTH 20 0
BBX 16 26 2 0
BITMAP
0108
0318
0630
0C60
18C0
0000
0000
07E0
1C38
300C
2006
6006
4003
C003
8001
8001
8001
8001
8001
C003
4003
6006
2006
300C
1C38
07E0
ENDCHAR

STARTCHAR Odieresis
ENCODING 214
SWIDTH 600 0
DWIDTH 20 0
BBX 16 24 2 0
BITMAP
0810
1C38
0810
0000
0000
07E0
1C38
300C
2006
6006
4003
C003
8001
8001
8001
8001
8001
C003
4003
6006
2006
300C
1C38
07E0
ENDCHAR

STARTCHAR multiply
ENCODING 215
SWIDTH 600 0
DWIDTH 20 0
BBX 12 11 4 4
BITMAP
C020
6060
30C0
1980
0F00
0600
0F00
1980
30C0
6070
C020
ENDCHAR

STARTCHAR Rcaron
ENCODING 216
SWIDTH 600 0
DWIDTH 20 0
BBX 18 26 1 0
BITMAP
080000
060C00
033800
01E000
00C000
000000
000000
FFF000
101C00
100400
100600
100200
100200
100600
100C00
103800
1FE000
106000
103000
100800
100C00
100600
100200
100300
100100
FF01C0
ENDCHAR

STARTCHAR Uring
ENCODING 217
SWIDTH 600 0
DWIDTH 20 0
BBX 16 27 2 0
BITMAP
03C0
0660
0420
0420
0260
03C0
0000
0000
FC3F
2004
2004
2004
2004
2004
2004
2004
2004
2004
2004
2004
2004
2004
2004
100C
1818
0C70
07E0
ENDCHAR

STARTCHAR Uacute
ENCODING 218
SWIDTH 600 0
DWIDTH 20 0
BBX 17 26 1 0
BITMAP
002000
006000
01C000
030000
020000
000000
000000
FE3F80
200200
200200
200200
200200
200200
200200
200200
200200
200200
200200
200200
200200
200200
300600
100400
180C00
0E3800
03F000
ENDCHAR

STARTCHAR Uhungarumlaut
ENCODING 219
SWIDTH 600 0
DWIDTH 20 0
BBX 17 26 1 0
BITMAP
010C00
031800
063000
0C6000
084000
000000
000000
FE3F80
200200
200200
200200
200200
200200
200200
200200
200200
200200
200200
200200
200200
200200
300600
100400
180C00
0E3800
03F000
ENDCHAR

STARTCHAR Udieresis
ENCODING 220
SWIDTH 600 0
DWIDTH 20 0
BBX 16 25 2 0
BITMAP
0810
1C38
0810
0000
0000
0000
FC3F
2004
2004
2004
2004
2004
2004
2004
2004
2004
2004
2004
2004
2004
2004
300C
1818
0C70
07E0
ENDCHAR

STARTCHAR Yacute
ENCODING 221
SWIDTH 600 0
DWIDTH 20 0
BBX 17 26 1 0
BITMAP
002000
00E000
018000
030000
020000
000000
000000
FC1F80
300600
100400
180C00
0C1800
041000
063000
036000
014000
01C000
008000
008000
008000
008000
008000
008000
008000
008000
1FFC00
ENDCHAR

STARTCHAR Tcommaaccent
ENCODING 222
SWIDTH 600 0
DWIDTH 20 0
BBX 15 27 2 -8
BITMAP
FFFE
8102
8102
8102
8102
8102
8102
0100
0100
0100
0100
0100
0100
0100
0100
0100
0100
0100
3FF8
0000
0000
0300
0780
0380
0100
0300
0600
ENDCHAR

STARTCHAR germandbls
ENCODING 223
SWIDTH 600 0
DWIDTH 20 0
BBX 15 21 1 0
BITMAP
07C0
0C60
1830
1010
1010
1010
1030
1040
11E0
1030
101C
1004
1006
1002
1002
1002
1082
1186
1186
10CC
FC78
ENDCHAR

STARTCHAR racute
ENCODING 224
SWIDTH 600 0
DWIDTH 20 0
BBX 15 22 3 0
BITMAP
0040
00C0
0180
0600
0400
0000
0000
0000
F87C
08C6
0B82
0E00
0C00
0800
0800
0800
0800
0800
0800
0800
0800
FFF0
ENDCHAR

STARTCHAR aacute
ENCODING 225
SWIDTH 600 0
DWIDTH 20 0
BBX 15 21 3 0
BITMAP
00C0
0180
0300
0600
0400
0000
0000
1FC0
7860
0030
0010
0010
0010
1FF0
7030
C010
8010
8010
C070
61D0
3F1E
ENDCHAR

STARTCHAR acircumflex
ENCODING 226
SWIDTH 600 0
DWIDTH 20 0
BBX 15 21 3 0
BITMAP
0100
0380
0CC0
1870
1010
0000
0000
1FC0
7860
0030
0010
0010
0010
1FF0
7030
C010
8010
8010
C070
61D0
3F1E
ENDCHAR

STARTCHAR abreve
ENCODING 227
SWIDTH 600 0
DWIDTH 20 0
BBX 15 20 3 0
BITMAP
1010
1030
0C60
07C0
0000
0000
1FC0
7860
0030
0010
0010
0010
1FF0
7030
C010
8010
8010
C070
61D0
3F1E
ENDCHAR

STARTCHAR adieresis
ENCODING 228
SWIDTH 600 0
DWIDTH 20 0
BBX 16 20 2 0
BITMAP
0810
1C38
0810
0000
0000
0000
1FE0
3830
0018
0008
0008
0008
1FF8
7818
C008
8008
8018
C038
60E8
3F8F
ENDCHAR

STARTCHAR lacute
ENCODING 229
SWIDTH 600 0
DWIDTH 20 0
BBX 13 27 3 0
BITMAP
0180
0300
0600
0C00
0800
0000
7E00
0200
0200
0200
0200
0200
0200
0200
0200
0200
0200
0200
0200
0200
0200
0200
0200
0200
0200
0200
FFF8
ENDCHAR

STARTCHAR cacute
ENCODING 230
SWIDTH 600 0
DWIDTH 20 0
BBX 15 21 3 0
BITMAP
00C0
0180
0300
0600
0400
0000
0000
0FE4
383C
600C
4004
C004
8000
8000
8000
8000
C000
4002
600E
3838
0FE0
ENDCHAR

STARTCHAR ccedilla
ENCODING 231
SWIDTH 600 0
DWIDTH 20 0
BBX 15 19 3 -5
BITMAP
0FE4
181C
300C
6004
C004
8000
8000
8000
8000
C000
4002
700E
1838
0FF0
0100
0180
0040
0C40
0780
ENDCHAR

STARTCHAR ccaron
ENCODING 232
SWIDTH 600 0
DWIDTH 20 0
BBX 15 21 3 0
BITMAP
1010
1870
0EC0
0380
0100
0000
0000
0FE4
383C
600C
4004
C004
8000
8000
8000
8000
C000
4002
600E
3838
0FE0
ENDCHAR

STARTCHAR eacute
ENCODING 233
SWIDTH 600 0
DWIDTH 20 0
BBX 15 21 2 0
BITMAP
0040
01C0
0300
0600
0400
0000
0000
0FE0
3838
600C
4004
C006
8002
FFFE
8000
C000
C000
6000
3006
1C1C
07F0
ENDCHAR

STARTCHAR eogonek
ENCODING 234
SWIDTH 600 0
DWIDTH 20 0
BBX 15 18 2 -4
BITMAP
0FE0
3838
600C
4004
C006
8002
FFFE
8000
C000
4000
6000
3006
1C1C
07F0
0200
0200
0320
01E0
ENDCHAR

STARTCHAR edieresis
ENCODING 235
SWIDTH 600 0
DWIDTH 20 0
BBX 14 20 3 0
BITMAP
1020
3870
1020
0000
0000
0000
0FC0
3870
6018
4008
C004
8004
FFFC
8000
8000
C000
4000
200C
1838
0FE0
ENDCHAR

STARTCHAR ecaron
ENCODING 236
SWIDTH 600 0
DWIDTH 20 0
BBX 15 21 2 0
BITMAP
1010
1830
0C60
03C0
0100
0000
0000
0FE0
3838
600C
4004
C006
8002
FFFE
8000
C000
C000
6000
3006
1C1C
07F0
ENDCHAR

STARTCHAR iacute
ENCODING 237
SWIDTH 600 0
DWIDTH 20 0
BBX 13 22 3 0
BITMAP
0080
0180
0300
0600
0C00
0000
0000
0000
7E00
0200
0200
0200
0200
0200
0200
0200
0200
0200
0200
0200
0200
FFF8
ENDCHAR

STARTCHAR icircumflex
ENCODING 238
SWIDTH 600 0
DWIDTH 20 0
BBX 13 21 3 0
BITMAP
0700
0D80
18C0
3060
0000
0000
0000
7E00
0200
0200
0200
0200
0200
0200
0200
0200
0200
0200
0200
0200
FFF8
ENDCHAR

STARTCHAR dcaron
ENCODING 239
SWIDTH 600 0
DWIDTH 20 0
BBX 19 21 2 0
BITMAP
003CE0
0004E0
0004A0
000460
000440
0004C0
000400
0FC400
387400
601400
400C00
C00C00
800400
800400
800400
800400
C00C00
400C00
201400
186400
0FC780
ENDCHAR

STARTCHAR dcroat
ENCODING 240
SWIDTH 600 0
DWIDTH 20 0
BBX 17 21 2 0
BITMAP
003C00
000400
000400
000400
01FF80
000400
000400
0FC400
387400
601400
400C00
C00C00
800400
800400
800400
800400
C00C00
400C00
201400
186400
0FC780
ENDCHAR

STARTCHAR nacute
ENCODING 241
SWIDTH 600 0
DWIDTH 20 0
BBX 16 22 2 0
BITMAP
0040
00C0
0180
0300
0600
0000
0000
0000
E7E0
2C30
3818
3008
2008
2008
2008
2008
2008
2008
2008
2008
2008
FC3F
ENDCHAR

STARTCHAR ncaron
ENCODING 242
SWIDTH 600 0
DWIDTH 20 0
BBX 16 21 2 0
BITMAP
1030
0C60
06C0
0380
0100
0000
0000
E7E0
2C30
3818
3008
2008
2008
2008
2008
2008
2008
2008
2008
2008
FC3F
ENDCHAR

STARTCHAR oacute
ENCODING 243
SWIDTH 600 0
DWIDTH 20 0
BBX 15 21 2 0
BITMAP
0040
01C0
0300
0600
0400
0000
0000
0FE0
1838
200C
4004
C006
8002
8002
8002
8002
C006
6004
3018
1870
0FE0
ENDCHAR

STARTCHAR ocircumflex
ENCODING 244
SWIDTH 600 0
DWIDTH 20 0
BBX 15 21 2 0
BITMAP
0100
0380
0EE0
1830
1010
0000
0000
0FE0
1838
200C
4004
C006
8002
8002
8002
8002
C006
6004
3018
1870
0FE0
ENDCHAR

STARTCHAR ohungarumlaut
ENCODING 245
SWIDTH 600 0
DWIDTH 20 0
BBX 15 21 2 0
BITMAP
0210
0630
0C60
18C0
1080
0000
0000
0FE0
1838
200C
4004
C006
8002
8002
8002
8002
C006
6004
3018
1870
0FE0
ENDCHAR

STARTCHAR odieresis
ENCODING 246
SWIDTH 600 0
DWIDTH 20 0
BBX 14 20 3 0
BITMAP
1020
3870
1020
0000
0000
0000
0FC0
3870
6018
4008
C00C
8004
8004
8004
8004
C00C
4008
6018
3870
0FC0
ENDCHAR

STARTCHAR divide
ENCODING 247
SWIDTH 600 0
DWIDTH 20 0
BBX 16 15 2 2
BITMAP
0100
0380
0100
0000
0000
0000
0000
FFFF
0000
0000
0000
0000
0100
0380
0100
ENDCHAR

STARTCHAR rcaron
ENCODING 248
SWIDTH 600 0
DWIDTH 20 0
BBX 15 21 3 0
BITMAP
3030
1C60
06C0
0380
0100
0000
0000
F87C
08C6
0B82
0E00
0C00
0800
0800
0800
0800
0800
0800
0800
0800
FFF0
ENDCHAR

STARTCHAR uring
ENCODING 249
SWIDTH 600 0
DWIDTH 20 0
BBX 16 22 2 0
BITMAP
03C0
0660
0420
0420
0260
01C0
0000
0000
F03C
1004
1004
1004
1004
1004
1004
1004
1004
1004
100C
181C
0C74
07C7
ENDCHAR

STARTCHAR uacute
ENCODING 250
SWIDTH 600 0
DWIDTH 20 0
BBX 16 22 2 0
BITMAP
0020
0060
01C0
0300
0200
0000
0000
0000
F03C
1004
1004
1004
1004
1004
1004
1004
1004
1004
100C
181C
0C74
07C7
ENDCHAR

STARTCHAR uhungarumlaut
ENCODING 251
SWIDTH 600 0
DWIDTH 20 0
BBX 16 22 2 0
BITMAP
0108
0318
0630
0C60
08C0
0000
0000
0000
F03C
1004
1004
1004
1004
1004
1004
1004
1004
1004
100C
181C
0C74
07C7
ENDCHAR

STARTCHAR udieresis
ENCODING 252
SWIDTH 600 0
DWIDTH 20 0
BBX 16 20 2 0
BITMAP
0810
1C38
0810
0000
0000
0000
F07C
1004
1004
1004
1004
1004
1004
1004
1004
1004
100C
181C
0C74
07C7
ENDCHAR

STARTCHAR yacute
ENCODING 253
SWIDTH 600 0
DWIDTH 20 0
BBX 17 28 2 -6
BITMAP
002000
006000
00C000
018000
030000
000000
000000
000000
FC1F80
200200
300600
100400
180C00
080800
0C1800
041000
063000
022000
036000
014000
01C000
008000
008000
010000
010000
030000
020000
FFC000
ENDCHAR

STARTCHAR tcommaaccent
ENCODING 254
SWIDTH 600 0
DWIDTH 20 0
BBX 15 27 3 -8
BITMAP
0800
0800
0800
0800
0800
FFF8
0800
0800
0800
0800
0800
0800
0800
0800
0800
0800
0C02
061E
03F8
0000
0000
0380
0780
0380
0100
0300
0600
ENDCHAR

STARTCHAR dotaccent
ENCODING 255
SWIDTH 600 0
DWIDTH 20 0
BBX 3 3 8 17
BITMAP
E0
E0
E0
ENDCHAR
ENDFONT
